<svg width="64" height="64" viewBox="0 0 64 64" fill="none" xmlns="http://www.w3.org/2000/svg">
<rect width="64" height="64" rx="32" fill="#E0E0FF"/>
<path d="M24.5 45.125C23.8125 45.125 23.224 44.8802 22.7344 44.3906C22.2448 43.901 22 43.3125 22 42.625V30.125C22 29.4375 22.2448 28.849 22.7344 28.3594C23.224 27.8698 23.8125 27.625 24.5 27.625H25.75V25.125C25.75 23.3958 26.3594 21.9219 27.5781 20.7031C28.7969 19.4844 30.2708 18.875 32 18.875C33.7292 18.875 35.2031 19.4844 36.4219 20.7031C37.6406 21.9219 38.25 23.3958 38.25 25.125V27.625H39.5C40.1875 27.625 40.776 27.8698 41.2656 28.3594C41.7552 28.849 42 29.4375 42 30.125V42.625C42 43.3125 41.7552 43.901 41.2656 44.3906C40.776 44.8802 40.1875 45.125 39.5 45.125H24.5V45.125M32 38.875C32.6875 38.875 33.276 38.6302 33.7656 38.1406C34.2552 37.651 34.5 37.0625 34.5 36.375C34.5 35.6875 34.2552 35.099 33.7656 34.6094C33.276 34.1198 32.6875 33.875 32 33.875C31.3125 33.875 30.724 34.1198 30.2344 34.6094C29.7448 35.099 29.5 35.6875 29.5 36.375C29.5 37.0625 29.7448 37.651 30.2344 38.1406C30.724 38.6302 31.3125 38.875 32 38.875V38.875M28.25 27.625H35.75V25.125C35.75 24.0833 35.3854 23.1979 34.6562 22.4688C33.9271 21.7396 33.0417 21.375 32 21.375C30.9583 21.375 30.0729 21.7396 29.3438 22.4688C28.6146 23.1979 28.25 24.0833 28.25 25.125V27.625V27.625" fill="#000666"/>
</svg>
