<svg width="156" height="156" viewBox="0 0 156 156" fill="none" xmlns="http://www.w3.org/2000/svg">
<g filter="url(#filter0_d_1_12)">
<rect x="30" y="22" width="96" height="96" rx="48" fill="#E0E0FF" shape-rendering="crispEdges"/>
<path d="M78 78C81.4 74.9333 83.5833 72.775 84.55 71.525C85.5167 70.275 86 69.0333 86 67.8C86 66.6 85.5667 65.5667 84.7 64.7C83.8333 63.8333 82.8 63.4 81.6 63.4C80.9 63.4 80.225 63.5417 79.575 63.825C78.925 64.1083 78.4 64.5 78 65C77.6 64.5 77.0833 64.1083 76.45 63.825C75.8167 63.5417 75.1333 63.4 74.4 63.4C73.2 63.4 72.1667 63.8333 71.3 64.7C70.4333 65.5667 70 66.6 70 67.8C70 68.4333 70.0833 69.0167 70.25 69.55C70.4167 70.0833 70.7833 70.7083 71.35 71.425C71.9167 72.1417 72.725 73.0167 73.775 74.05C74.825 75.0833 76.2333 76.4 78 78V78M78 90C73.3667 88.8333 69.5417 86.175 66.525 82.025C63.5083 77.875 62 73.2667 62 68.2V56L78 50L94 56V68.2C94 73.2667 92.4917 77.875 89.475 82.025C86.4583 86.175 82.6333 88.8333 78 90V90" fill="#312E81"/>
</g>
<defs>
<filter id="filter0_d_1_12" x="0" y="0" width="156" height="156" filterUnits="userSpaceOnUse" color-interpolation-filters="sRGB">
<feFlood flood-opacity="0" result="BackgroundImageFix"/>
<feColorMatrix in="SourceAlpha" type="matrix" values="0 0 0 0 0 0 0 0 0 0 0 0 0 0 0 0 0 0 127 0" result="hardAlpha"/>
<feOffset dy="8"/>
<feGaussianBlur stdDeviation="15"/>
<feComposite in2="hardAlpha" operator="out"/>
<feColorMatrix type="matrix" values="0 0 0 0 0.101961 0 0 0 0 0.137255 0 0 0 0 0.494118 0 0 0 0.12 0"/>
<feBlend mode="normal" in2="BackgroundImageFix" result="effect1_dropShadow_1_12"/>
<feBlend mode="normal" in="SourceGraphic" in2="effect1_dropShadow_1_12" result="shape"/>
</filter>
</defs>
</svg>
